<svg width="0" height="0" class="hidden">
  <symbol fill="none" xmlns="http://www.w3.org/2000/svg" viewBox="0 0 22 42" id="right">
    <path d="M8.22955 1.42202C9.54381 2.65882 9.87238 4.59991 9.87238 5.41586C9.32477 5.41586 7.87571 5.10664 6.46035 3.86978C5.04498 2.63292 4.52265 0.777806 4.4384 0.00485754C5.15451 -0.0380869 6.91528 0.185224 8.22955 1.42202Z" fill="#3177F2"></path>
    <path d="M15.5716 4.88314C15.5184 6.7058 14.2972 8.23221 13.6932 8.76759C13.3339 8.34628 12.612 7.02854 12.5989 5.12806C12.5858 3.22758 13.6163 1.6085 14.1332 1.03652C14.6348 1.55929 15.6248 3.06048 15.5716 4.88314Z" fill="#3177F2"></path>
    <path d="M19.0905 11.3707C18.719 13.1544 17.25 14.4339 16.562 14.8508C16.2822 14.3708 15.8027 12.9429 16.1226 11.0706C16.4425 9.19835 17.74 7.79288 18.3487 7.32418C18.7508 7.92984 19.462 9.58707 19.0905 11.3707Z" fill="#3177F2"></path>
    <path d="M20.2824 19.8038C19.3832 21.3805 17.5959 22.1292 16.8146 22.3064C16.6959 21.7614 16.5744 19.9768 17.4517 18.2994C18.3291 16.6221 20.0955 15.9746 20.8173 15.7229C21.0137 16.4262 21.1816 18.2271 20.2824 19.8038Z" fill="#3177F2"></path>
    <path d="M19.5093 27.6593C18.2685 28.9727 16.358 29.2665 15.5578 29.2492C15.5694 28.691 15.867 26.9281 17.1099 25.5117C18.3528 24.0952 20.2195 23.8947 20.9793 23.8251C21.0062 24.5559 20.75 26.3459 19.5093 27.6593Z" fill="#3177F2"></path>
    <path d="M10.65 26.9238C11.7269 28.3796 13.589 28.9053 14.3854 28.9862C14.4397 28.4307 14.3521 26.6441 13.2851 25.0857C12.2182 23.5273 10.3887 23.0995 9.64262 22.9374C9.52971 23.6596 9.57312 25.4679 10.65 26.9238Z" fill="#3177F2"></path>
    <path d="M13.1597 31.6143C11.4678 32.2057 10.3993 33.8469 10.0765 34.5936C10.5776 34.8187 12.2707 35.2887 14.0551 34.7387C15.8396 34.1888 16.8066 32.5488 17.1895 31.8761C16.5512 31.5424 14.8516 31.0229 13.1597 31.6143Z" fill="#3177F2"></path>
    <path d="M6.54973 30.3095C6.86633 32.1041 8.29529 33.4299 8.9702 33.8685C9.26454 33.3977 9.97719 31.7631 9.71488 29.8815C9.45258 27.9999 8.00934 26.7765 7.41528 26.2886C6.99485 26.8812 6.23314 28.5149 6.54973 30.3095Z" fill="#3177F2"></path>
    <path d="M8.37234 36.4486C6.58428 36.493 5.08047 37.7298 4.55207 38.3426C4.96337 38.7112 6.4389 39.6793 8.30293 39.7029C10.167 39.7266 11.5737 38.4598 12.1376 37.9359C11.6275 37.4217 10.1604 36.4043 8.37234 36.4486Z" fill="#3177F2"></path>
    <path d="M2.15425 33.2796C1.98959 35.0953 3.01969 36.7618 3.55532 37.3681C3.96222 36.9944 5.07692 35.6129 5.31666 33.7282C5.5564 31.8434 4.48575 30.2717 4.04094 29.6399C3.48065 30.0966 2.31891 31.4639 2.15425 33.2796Z" fill="#3177F2"></path>
    <path d="M8.70231 10.6093C6.94053 10.2947 5.63355 8.84397 5.20029 8.15793C5.66072 7.85571 7.04328 7.31597 8.89009 7.5748C10.7369 7.83363 12.1611 9.10514 12.6424 9.70853C12.0631 10.1399 10.4641 10.9239 8.70231 10.6093Z" fill="#3177F2"></path>
    <path d="M11.6543 15.7853C9.9615 15.1965 8.89055 13.557 8.56667 12.8109C9.06744 12.585 10.5153 12.2699 12.3005 12.8171C14.0858 13.3642 15.2998 14.8451 15.6837 15.5172C15.0459 15.8519 13.3471 16.3741 11.6543 15.7853Z" fill="#3177F2"></path>
    <path d="M11.4319 21.3586C10.0498 20.2013 9.61177 18.2828 9.56554 17.4682C10.1122 17.4359 11.9223 17.5355 13.4053 18.6869C14.8884 19.8384 15.1691 21.7835 15.297 22.5501C14.5845 22.6352 12.814 22.5159 11.4319 21.3586Z" fill="#3177F2"></path>
  </symbol>
  <symbol fill="none" xmlns="http://www.w3.org/2000/svg" viewBox="0 0 22 42" id="left">
    <path d="M13.7706 1.42208C12.4563 2.65888 12.1277 4.59997 12.1277 5.41592C12.6754 5.41592 14.1244 5.1067 15.5398 3.86984C16.9552 2.63298 17.4775 0.777867 17.5618 0.00491857C16.8457 -0.0380259 15.0849 0.185285 13.7706 1.42208Z" fill="#3177F2"></path>
    <path d="M6.42853 4.88442C6.48171 6.70708 7.70298 8.23349 8.30697 8.76887C8.66628 8.34756 9.38817 7.02982 9.40128 5.12934C9.41438 3.22887 8.38389 1.60979 7.867 1.03781C7.36535 1.56057 6.37534 3.06177 6.42853 4.88442Z" fill="#3177F2"></path>
    <path d="M2.90947 11.3707C3.28099 13.1544 4.74995 14.434 5.43799 14.8508C5.71775 14.3709 6.19728 12.9429 5.87736 11.0707C5.55744 9.19838 4.25997 7.79291 3.65122 7.32421C3.24917 7.92987 2.53796 9.5871 2.90947 11.3707Z" fill="#3177F2"></path>
    <path d="M1.71775 19.8055C2.61699 21.3821 4.4043 22.1308 5.18554 22.3081C5.30427 21.7631 5.42582 19.9784 4.54844 18.3011C3.67106 16.6238 1.90467 15.9763 1.18286 15.7245C0.986474 16.4279 0.818512 18.2288 1.71775 19.8055Z" fill="#3177F2"></path>
    <path d="M2.4907 27.6593C3.73143 28.9727 5.64197 29.2665 6.44215 29.2492C6.43056 28.6911 6.13297 26.9281 4.89005 25.5117C3.64712 24.0953 1.78046 23.8947 1.02066 23.8252C0.993702 24.556 1.24997 26.3459 2.4907 27.6593Z" fill="#3177F2"></path>
    <path d="M11.35 26.9238C10.273 28.3796 8.41098 28.9053 7.61457 28.9862C7.56028 28.4307 7.64789 26.6441 8.71484 25.0857C9.78179 23.5273 11.6113 23.0995 12.3574 22.9374C12.4703 23.6596 12.4269 25.4679 11.35 26.9238Z" fill="#3177F2"></path>
    <path d="M8.84031 31.6143C10.5322 32.2057 11.6007 33.8469 11.9235 34.5936C11.4224 34.8187 9.72932 35.2887 7.94487 34.7387C6.16042 34.1888 5.19333 32.5488 4.81048 31.8761C5.44879 31.5424 7.14839 31.0229 8.84031 31.6143Z" fill="#3177F2"></path>
    <path d="M15.4535 30.3095C15.1369 32.1042 13.7079 33.43 13.033 33.8685C12.7386 33.3978 12.026 31.7631 12.2883 29.8815C12.5506 27.9999 13.9939 26.7765 14.5879 26.2886C15.0084 26.8812 15.7701 28.5149 15.4535 30.3095Z" fill="#3177F2"></path>
    <path d="M13.6277 36.4487C15.4157 36.493 16.9196 37.7298 17.448 38.3426C17.0367 38.7112 15.5611 39.6793 13.6971 39.703C11.833 39.7266 10.4262 38.4598 9.8624 37.936C10.3725 37.4217 11.8396 36.4043 13.6277 36.4487Z" fill="#3177F2"></path>
    <path d="M19.8457 33.2796C20.0104 35.0953 18.9803 36.7618 18.4446 37.3681C18.0377 36.9945 16.923 35.6129 16.6833 33.7282C16.4436 31.8435 17.5142 30.2718 17.959 29.6399C18.5193 30.0966 19.6811 31.4639 19.8457 33.2796Z" fill="#3177F2"></path>
    <path d="M13.2977 10.6093C15.0595 10.2947 16.3665 8.84397 16.7997 8.15793C16.3393 7.85571 14.9567 7.31597 13.1099 7.5748C11.2631 7.83363 9.83881 9.10513 9.35754 9.70853C9.93684 10.1399 11.5359 10.9238 13.2977 10.6093Z" fill="#3177F2"></path>
    <path d="M10.3457 15.7853C12.0385 15.1965 13.1095 13.557 13.4334 12.8109C12.9326 12.585 11.4847 12.2699 9.69945 12.8171C7.91418 13.3642 6.70014 14.8451 6.31628 15.5172C6.9541 15.8519 8.65292 16.3741 10.3457 15.7853Z" fill="#3177F2"></path>
    <path d="M10.5682 21.3586C11.9504 20.2013 12.3884 18.2828 12.4346 17.4682C11.8879 17.436 10.0778 17.5355 8.59474 18.6869C7.11165 19.8384 6.83097 21.7835 6.70307 22.5502C7.41555 22.6352 9.18606 22.516 10.5682 21.3586Z" fill="#3177F2"></path>
  </symbol>
  <symbol fill="none" xmlns="http://www.w3.org/2000/svg" viewBox="0 0 21 20" id="servers">
    <path d="M14.69 0H6.31C2.67 0 0.5 2.17 0.5 5.81V14.18C0.5 17.83 2.67 20 6.31 20H14.68C18.32 20 20.49 17.83 20.49 14.19V5.81C20.5 2.17 18.33 0 14.69 0ZM14.7 16.25C13.57 16.25 12.65 15.33 12.65 14.2C12.65 13.54 12.97 12.96 13.46 12.58C13.04 11.48 11.99 10.72 10.81 10.76L8.75 10.77H8.74C8.13 10.77 7.55 10.59 7.06 10.28V12.3C7.82 12.6 8.36 13.34 8.36 14.2C8.36 15.33 7.44 16.25 6.31 16.25C5.18 16.25 4.26 15.33 4.26 14.2C4.26 13.33 4.8 12.6 5.56 12.3V7.95C4.8 7.6 4.26 6.84 4.26 5.95C4.26 4.74 5.25 3.75 6.46 3.75C7.67 3.75 8.66 4.74 8.66 5.95C8.66 6.93 8.01 7.75 7.12 8.04C7.32 8.77 7.98 9.28 8.74 9.28C8.74 9.28 8.74 9.28 8.75 9.28L10.81 9.27C10.82 9.27 10.82 9.27 10.83 9.27C12.67 9.27 14.32 10.44 14.92 12.18C15.95 12.29 16.76 13.15 16.76 14.21C16.75 15.33 15.83 16.25 14.7 16.25Z" fill="#3177F2"></path>
  </symbol>
  <symbol fill="none" xmlns="http://www.w3.org/2000/svg" viewBox="0 0 25 24" id="location">
    <path d="M21.12 8.45C20.07 3.83 16.04 1.75 12.5 1.75C12.5 1.75 12.5 1.75 12.49 1.75C8.95997 1.75 4.91997 3.82 3.86997 8.44C2.69997 13.6 5.85997 17.97 8.71997 20.72C9.77997 21.74 11.14 22.25 12.5 22.25C13.86 22.25 15.22 21.74 16.27 20.72C19.13 17.97 22.29 13.61 21.12 8.45ZM12.5 13.46C10.76 13.46 9.34997 12.05 9.34997 10.31C9.34997 8.57 10.76 7.16 12.5 7.16C14.24 7.16 15.65 8.57 15.65 10.31C15.65 12.05 14.24 13.46 12.5 13.46Z" fill="#3177F2"></path>
  </symbol>
</svg>
